<svg xmlns="http://www.w3.org/2000/svg" viewBox="0 0 300 200">
  <defs>
    <style>
      .a {
        fill: #012169;
      }

      .b {
        fill: #fff;
      }

      .c {
        fill: #c8102e;
      }
    </style>
  </defs>
  <g>
    <g>
      <polygon class="a" points="183.33 0 183.33 53.74 263.94 0 183.33 0"/>
      <polygon class="a" points="0 24.04 0 66.67 63.95 66.67 0 24.04"/>
      <polygon class="a" points="116.67 53.74 116.67 0 36.06 0 116.67 53.74"/>
      <polygon class="a" points="116.67 200 116.67 146.26 36.06 200 116.67 200"/>
      <polygon class="a" points="0 133.33 0 175.96 63.95 133.33 0 133.33"/>
      <polygon class="a" points="183.33 200 263.94 200 183.33 146.26 183.33 200"/>
      <polygon class="a" points="236.06 66.67 300 66.67 300 24.04 236.06 66.67"/>
      <polygon class="a" points="300 175.96 300 133.33 236.06 133.33 300 175.96"/>
    </g>
    <g>
      <polygon class="b" points="300 0 200 66.67 183.33 66.67 183.33 61.75 275.96 0 263.94 0 183.33 53.74 183.33 0 170 0 170 80 300 80 300 66.67 236.06 66.67 300 24.04 300 0"/>
      <polygon class="b" points="170 200 183.33 200 183.33 146.26 263.94 200 300 200 200 133.33 224.04 133.33 300 183.97 300 175.96 236.06 133.33 300 133.33 300 120 170 120 170 200"/>
      <polygon class="b" points="0 133.33 63.95 133.33 0 175.96 0 200 100 133.33 116.67 133.33 116.67 138.25 24.04 200 36.06 200 116.67 146.26 116.67 200 130 200 130 120 0 120 0 133.33"/>
      <polygon class="b" points="116.67 53.74 36.06 0 0 0 100 66.67 75.96 66.67 0 16.02 0 24.04 63.95 66.67 0 66.67 0 80 130 80 130 0 116.67 0 116.67 53.74"/>
    </g>
    <g>
      <polygon class="c" points="300 0 275.96 0 183.33 61.75 183.33 66.67 200 66.67 300 0"/>
      <polygon class="c" points="0 200 24.04 200 116.67 138.25 116.67 133.33 100 133.33 0 200"/>
      <polygon class="c" points="200 133.33 300 200 300 183.97 224.04 133.33 200 133.33"/>
      <polygon class="c" points="100 66.67 0 0 0 16.02 75.96 66.67 100 66.67"/>
      <polygon class="c" points="170 0 130 0 130 80 0 80 0 120 130 120 130 200 170 200 170 120 300 120 300 80 170 80 170 0"/>
    </g>
  </g>
</svg>
