<svg xmlns="http://www.w3.org/2000/svg" viewBox="0 0 16.74 16.65">
  <path fill="#4da5e0" d="M1.65,3.59C2.3,2.94,2.94,2.3,3.22,2.48c.46.19,0,.92-.28,1.38S.27,7.45.27,9.66a3.56,3.56,0,0,0,1.2,2.76,2.83,2.83,0,0,0,2.39.46c1-.28,1.75-1.29,2.85-2.58s2.58-3.13,3.78-3.13c1.47,0,1.47.93,1.65,1.66a5.62,5.62,0,0,0-5,5,2.88,2.88,0,0,0,2.94,2.85c1.47,0,4-1.2,4.32-5.61h2.3V8.74h-2.3c-.18-1.47-1-3.86-3.68-3.86-2,0-3.86,1.74-4.5,2.57-.56.65-1.94,2.3-2.12,2.49s-.65.73-1,.73-.65-.73-.37-1.75A15.21,15.21,0,0,1,4.51,5.7a5.59,5.59,0,0,0,1.1-3A2.42,2.42,0,0,0,3.31,0,3.86,3.86,0,0,0,.83,1.2L0,2Zm8.56,10.76a.68.68,0,0,1-.64-.64,3.27,3.27,0,0,1,2.66-2.58c-.36,2.49-1.37,3.22-2,3.22"/>
</svg>
