<svg xmlns="http://www.w3.org/2000/svg" viewBox="0 0 16.77 12.45">
  <path fill="#4da5e0" d="M16.42,5.42c-.83-3.77-2-4.7-2.69-5.07a3.41,3.41,0,0,0-2.88,0c-.49.25-.83.73-1.33,1a2.52,2.52,0,0,1-2,0A15,15,0,0,0,6.09.34,3.14,3.14,0,0,0,3,.52C2.68.73.66,2.42.05,7.71-.32,11,1.47,12,1.4,12a2.42,2.42,0,0,0,2.89,0A6.88,6.88,0,0,0,6,10.25a2.64,2.64,0,0,1,.78-.91,1.15,1.15,0,0,1,.79-.05H9.23a2.15,2.15,0,0,1,.91.1,1.39,1.39,0,0,1,.57.55,12.1,12.1,0,0,0,2.16,2.16,2.75,2.75,0,0,0,3.2-.48c.62-.75,1-3,.35-6.2m-9-.33a.51.51,0,0,1-.51.52H5.67v1.3a.52.52,0,0,1-.51.52H4.78a.52.52,0,0,1-.51-.52V5.61H3a.51.51,0,0,1-.51-.52V4.7A.51.51,0,0,1,3,4.18H4.27V2.88a.52.52,0,0,1,.51-.52h.38a.52.52,0,0,1,.51.52v1.3H6.94a.51.51,0,0,1,.51.52ZM11,6.9a1,1,0,1,1,1-1,1,1,0,0,1-1,1m1.75-2.16a1,1,0,1,1,.94-1,.95.95,0,0,1-.94,1"/>
</svg>
