<?xml version="1.0" encoding="utf-8"?>
<!-- Generator: Adobe Illustrator 25.3.1, SVG Export Plug-In . SVG Version: 6.00 Build 0)  -->
<svg version="1.1" id="Calque_1" xmlns="http://www.w3.org/2000/svg" xmlns:xlink="http://www.w3.org/1999/xlink" x="0px" y="0px"
	 viewBox="0 0 256 256" style="enable-background:new 0 0 256 256;" xml:space="preserve">
<path fill="#4da5e0" d="M248.5,171.3l0.4-1.2c9.5-27.3,9.5-56.9,0-84.2l-0.4-1.2C230.1,34,182,0.1,128,0l0,0C74,0.1,25.8,33.9,7.5,84.7l-0.4,1.2
	c-9.5,27.3-9.5,56.9,0,84.2l0.4,1.2C25.8,222.1,74,255.9,128,256l0,0C182,255.9,230.2,222.1,248.5,171.3z M96.6,177.2h62.8
	c-6.3,19.6-17,37.4-31.4,52.2C113.7,214.7,102.9,196.8,96.6,177.2z M91.4,157.5c-3.8-19.5-3.8-39.6,0-59.1h73.1
	c1.9,9.7,2.8,19.6,2.8,29.5c0,9.9-1,19.8-2.8,29.5H91.4z M19.7,128c0-10,1.4-19.9,4.1-29.5h47.6c-3.3,19.6-3.3,39.5,0,59.1H23.8
	C21.1,147.9,19.7,138,19.7,128z M159.4,78.8H96.6c6.3-19.6,17-37.4,31.4-52.2C142.3,41.3,153.1,59.2,159.4,78.8z M184.6,98.5h47.6
	c5.4,19.3,5.4,39.8,0,59.1h-47.6C187.9,138,187.9,118,184.6,98.5z M224.5,78.8h-44.3c-5.9-20.7-16-40-29.7-56.7
	C182.4,28.9,209.6,49.7,224.5,78.8z M105.5,22C91.8,38.7,81.7,58,75.8,78.8H31.5C46.4,49.7,73.6,28.9,105.5,22z M31.5,177.2h44.3
	c5.9,20.7,16,40,29.7,56.7C73.5,227.1,46.4,206.3,31.5,177.2z M150.5,234c13.6-16.7,23.7-36,29.7-56.7h44.3
	C209.6,206.3,182.5,227.1,150.5,234L150.5,234z"/>
</svg>
